<svg xmlns="http://www.w3.org/2000/svg" width="156" height="113" fill="none"><path fill="url(#a)" d="M77.697 0c42.911 0 77.697 34.787 77.697 77.697-.001 10.825-2.217 21.13-6.216 30.492l-.002-.001c-.053.072-.104.148-.159.22-3.722 4.88-10.658 5.859-15.582 2.237-14.935-12.95-34.42-20.787-55.739-20.787-21.403 0-40.961 7.9-55.919 20.942-4.914 3.492-11.747 2.484-15.43-2.346-.016-.02-.03-.041-.045-.061C2.248 98.977 0 88.6 0 77.697 0 34.787 34.786 0 77.697 0Z"/><circle cx="77.397" cy="73.527" r="39.473" fill="url(#b)"/><defs><radialGradient id="b" cx="0" cy="0" r="1" gradientTransform="rotate(90 1.935 75.462) scale(39.4726)" gradientUnits="userSpaceOnUse"><stop stop-color="#C1FE77"/><stop offset="1" stop-color="#B1EC6A"/></radialGradient><linearGradient id="a" x1="78" x2="78" y1="0" y2="113" gradientUnits="userSpaceOnUse"><stop stop-color="#CECECE"/><stop offset="1" stop-color="#404040"/></linearGradient></defs></svg>