<svg xmlns="http://www.w3.org/2000/svg" width="458" height="278" fill="none"><path fill="#fff" d="M0 276.087V164.525h30.158v87.158H75.07v24.404H0ZM153.002 164.525h30.158v71.469c0 8.498-2.025 15.852-6.075 22.062-4.013 6.174-9.618 10.949-16.815 14.327-7.196 3.341-15.549 5.011-25.059 5.011-9.583 0-17.972-1.67-25.168-5.011-7.196-3.378-12.801-8.153-16.815-14.327-3.978-6.21-5.967-13.564-5.967-22.062v-71.469h30.159v68.855c0 3.45.759 6.536 2.278 9.26 1.519 2.687 3.616 4.794 6.292 6.319 2.712 1.525 5.786 2.288 9.221 2.288 3.471 0 6.545-.763 9.221-2.288s4.773-3.632 6.292-6.319c1.519-2.724 2.278-5.81 2.278-9.26v-68.855ZM301.204 206.361h-30.592c-.217-2.542-.796-4.848-1.736-6.918a15.625 15.625 0 0 0-3.797-5.339c-1.591-1.525-3.526-2.687-5.804-3.486-2.278-.835-4.864-1.253-7.757-1.253-5.062 0-9.347 1.235-12.855 3.704-3.471 2.47-6.111 6.011-7.919 10.623-1.772 4.612-2.658 10.15-2.658 16.614 0 6.827.904 12.547 2.712 17.159 1.844 4.576 4.502 8.026 7.974 10.35 3.471 2.288 7.648 3.432 12.53 3.432 2.784 0 5.279-.345 7.485-1.035 2.206-.726 4.122-1.761 5.749-3.105a16.059 16.059 0 0 0 3.96-4.848c1.049-1.925 1.754-4.086 2.116-6.483l30.592.218c-.362 4.721-1.682 9.533-3.96 14.436-2.278 4.866-5.514 9.369-9.709 13.509-4.159 4.104-9.312 7.409-15.459 9.914-6.147 2.506-13.289 3.759-21.425 3.759-10.198 0-19.347-2.197-27.447-6.591-8.064-4.394-14.446-10.859-19.147-19.393-4.665-8.534-6.997-18.975-6.997-31.322 0-12.42 2.387-22.879 7.16-31.377 4.773-8.534 11.21-14.98 19.31-19.338 8.1-4.394 17.14-6.591 27.121-6.591 7.015 0 13.47.962 19.364 2.887s11.065 4.739 15.513 8.443c4.448 3.668 8.028 8.19 10.74 13.564 2.712 5.375 4.357 11.531 4.936 18.467ZM345.045 164.525v111.562h-30.159V164.525h30.159ZM402.08 276.087h-42.743V164.525h42.309c11.427 0 21.299 2.234 29.616 6.7 8.353 4.431 14.79 10.823 19.31 19.175 4.556 8.316 6.834 18.285 6.834 29.906 0 11.621-2.26 21.608-6.78 29.96-4.52 8.317-10.921 14.708-19.202 19.175-8.28 4.431-18.062 6.646-29.344 6.646Zm-12.584-25.712h11.499c5.496 0 10.179-.889 14.048-2.669 3.906-1.779 6.871-4.848 8.896-9.206 2.061-4.358 3.092-10.422 3.092-18.194 0-7.772-1.049-13.836-3.146-18.194-2.061-4.358-5.099-7.427-9.113-9.206-3.977-1.78-8.859-2.669-14.645-2.669h-10.631v60.138Z"/><path fill="url(#a)" d="M228.697 0c42.911 0 77.697 34.787 77.697 77.697-.001 10.825-2.217 21.13-6.216 30.492l-.002-.001c-.053.072-.104.148-.159.22-3.722 4.88-10.658 5.859-15.582 2.237-14.935-12.95-34.421-20.787-55.739-20.787-21.403 0-40.961 7.9-55.919 20.942-4.914 3.492-11.747 2.484-15.43-2.346-.016-.02-.03-.041-.045-.061C153.248 98.977 151 88.6 151 77.697 151 34.787 185.786 0 228.697 0Z"/><circle cx="228.397" cy="73.527" r="39.473" fill="url(#b)"/><defs><radialGradient id="b" cx="0" cy="0" r="1" gradientTransform="rotate(90 77.435 150.962) scale(39.4726)" gradientUnits="userSpaceOnUse"><stop stop-color="#C1FE77"/><stop offset="1" stop-color="#B1EC6A"/></radialGradient><linearGradient id="a" x1="229" x2="229" y1="0" y2="113" gradientUnits="userSpaceOnUse"><stop stop-color="#CECECE"/><stop offset="1" stop-color="#404040"/></linearGradient></defs></svg>