<svg xmlns="http://www.w3.org/2000/svg" width="148" height="30" fill="none"><rect width="43" height="29" x="104.5" y=".5" fill="#1A1F12" stroke="#3C4B25" rx="4.5"/><path fill="#C2F970" d="M137.497 13.783c-.034-.344-.18-.611-.439-.801-.258-.19-.609-.286-1.052-.286-.302 0-.556.043-.763.128a1.065 1.065 0 0 0-.477.345.83.83 0 0 0-.162.503.716.716 0 0 0 .098.409c.073.116.174.217.302.303.128.082.276.154.443.217.168.06.347.11.537.153l.784.188c.381.085.73.199 1.049.34.318.143.593.317.826.525.233.207.414.452.542.733.13.281.197.604.2.967-.003.534-.139.997-.409 1.39-.267.389-.654.691-1.159.907-.503.213-1.11.32-1.82.32-.704 0-1.318-.108-1.841-.324a2.698 2.698 0 0 1-1.219-.96c-.289-.425-.441-.952-.456-1.58h1.786c.02.293.104.537.251.733a1.4 1.4 0 0 0 .601.439c.253.096.539.145.857.145.312 0 .584-.046.814-.137.233-.09.413-.217.541-.379a.875.875 0 0 0 .192-.558.728.728 0 0 0-.175-.494 1.326 1.326 0 0 0-.503-.341 5.127 5.127 0 0 0-.805-.256l-.951-.239c-.735-.179-1.316-.458-1.742-.84-.427-.38-.638-.893-.635-1.537-.003-.529.137-.99.421-1.385.287-.395.681-.704 1.181-.925.5-.222 1.068-.333 1.704-.333.648 0 1.213.111 1.696.333.486.221.864.53 1.134.925.27.394.409.852.418 1.372h-1.769ZM121.782 11.273h2.276l2.403 5.863h.102l2.404-5.863h2.275V20h-1.789v-5.68h-.073l-2.258 5.637h-1.219l-2.259-5.659h-.072V20h-1.79v-8.727ZM120.459 14.328h-1.866a1.826 1.826 0 0 0-.209-.643 1.631 1.631 0 0 0-.405-.486 1.783 1.783 0 0 0-.571-.307 2.187 2.187 0 0 0-.695-.106c-.451 0-.845.112-1.18.336-.335.222-.595.546-.78.972-.184.423-.277.937-.277 1.542 0 .623.093 1.145.277 1.569.188.423.449.742.784.958.336.216.723.324 1.164.324.247 0 .475-.032.686-.098a1.645 1.645 0 0 0 .976-.75c.11-.182.187-.389.23-.622l1.866.009a3.475 3.475 0 0 1-1.133 2.152c-.321.29-.705.52-1.151.69a4.23 4.23 0 0 1-1.504.251c-.779 0-1.475-.176-2.088-.528-.611-.352-1.094-.862-1.449-1.53-.352-.668-.529-1.476-.529-2.425 0-.951.179-1.761.537-2.429.358-.667.844-1.176 1.458-1.525.613-.353 1.304-.529 2.071-.529.505 0 .974.071 1.406.213.435.143.82.35 1.155.623.335.27.608.6.818.992.213.393.35.841.409 1.347Z"/><path fill="#fff" d="M0 26.68V3.32h6.315v18.25h9.405v5.11H0ZM32.039 3.32h6.315v14.965c0 1.78-.424 3.32-1.272 4.62-.84 1.293-2.014 2.293-3.521 3-1.507.7-3.256 1.05-5.247 1.05-2.007 0-3.764-.35-5.27-1.05-1.508-.707-2.681-1.707-3.522-3-.833-1.3-1.25-2.84-1.25-4.62V3.32h6.316v14.419c0 .722.159 1.369.477 1.939A3.449 3.449 0 0 0 26.383 21c.568.32 1.211.48 1.93.48.727 0 1.371-.16 1.931-.48.56-.32 1-.76 1.318-1.323.318-.57.477-1.217.477-1.94V3.32ZM63.073 12.08h-6.406a4.378 4.378 0 0 0-.364-1.449 3.27 3.27 0 0 0-.795-1.118 3.313 3.313 0 0 0-1.215-.73c-.477-.175-1.019-.262-1.624-.262-1.06 0-1.958.258-2.692.776-.727.517-1.28 1.258-1.659 2.224-.37.966-.556 2.125-.556 3.479 0 1.43.19 2.627.568 3.593.386.958.942 1.68 1.67 2.168.726.479 1.6.718 2.623.718.583 0 1.106-.072 1.568-.217a3.673 3.673 0 0 0 1.203-.65c.341-.281.618-.62.83-1.015.22-.403.367-.856.443-1.358l6.406.046c-.076.989-.352 1.996-.83 3.023-.476 1.019-1.154 1.962-2.032 2.829-.871.86-1.95 1.551-3.238 2.076-1.287.525-2.782.787-4.486.787-2.136 0-4.051-.46-5.748-1.38-1.688-.92-3.025-2.274-4.009-4.061-.977-1.787-1.465-3.973-1.465-6.559 0-2.6.5-4.79 1.5-6.57.999-1.787 2.346-3.137 4.043-4.05C48.504 3.46 50.397 3 52.487 3c1.469 0 2.82.202 4.055.605 1.234.403 2.317.992 3.248 1.768a8.726 8.726 0 0 1 2.25 2.84c.567 1.125.912 2.414 1.033 3.867ZM72.253 3.32v23.36h-6.315V3.32h6.315ZM84.196 26.68h-8.95V3.32h8.86c2.392 0 4.46.467 6.201 1.402a9.642 9.642 0 0 1 4.044 4.016c.954 1.741 1.43 3.829 1.43 6.262 0 2.433-.472 4.525-1.419 6.274a9.763 9.763 0 0 1-4.02 4.015c-1.735.928-3.783 1.392-6.146 1.392Zm-2.635-5.383h2.408c1.151 0 2.132-.187 2.942-.56.818-.372 1.439-1.015 1.863-1.927.431-.913.647-2.183.647-3.81 0-1.627-.22-2.897-.659-3.81-.431-.912-1.067-1.555-1.908-1.928-.833-.372-1.855-.559-3.067-.559h-2.226v12.594Z"/></svg>